<mxfile host="65bd71144e">
    <diagram name="Page-1" id="58cdce13-f638-feb5-8d6f-7d28b1aa9fa0">
        <mxGraphModel dx="3579" dy="1019" grid="1" gridSize="10" guides="1" tooltips="1" connect="1" arrows="1" fold="1" page="1" pageScale="1" pageWidth="500" pageHeight="300" background="#333333" math="0" shadow="0">
            <root>
                <mxCell id="0"/>
                <mxCell id="1" parent="0"/>
                <mxCell id="9" value="Model" style="swimlane;fontStyle=1;align=center;verticalAlign=top;childLayout=stackLayout;horizontal=1;startSize=26;horizontalStack=0;resizeParent=1;resizeParentMax=0;resizeLast=0;collapsible=1;marginBottom=0;whiteSpace=wrap;fontFamily=Verdana;" parent="1" vertex="1">
                    <mxGeometry x="-1945" y="490" width="390" height="410" as="geometry">
                        <mxRectangle x="-1970" y="520" width="70" height="26" as="alternateBounds"/>
                    </mxGeometry>
                </mxCell>
                <mxCell id="10" value="+ opt: IPluginOptions&#10;+ errorEvent: Observer&#10;- _listSavedStatus: object" style="text;strokeColor=none;fillColor=default;align=left;verticalAlign=top;spacingLeft=4;spacingRight=4;overflow=hidden;rotatable=0;points=[[0,0.5],[1,0.5]];portConstraint=eastwest;whiteSpace=wrap;fontFamily=Verdana;" parent="9" vertex="1">
                    <mxGeometry y="26" width="390" height="54" as="geometry"/>
                </mxCell>
                <mxCell id="11" value="" style="line;strokeWidth=1;fillColor=none;align=left;verticalAlign=middle;spacingTop=-1;spacingLeft=3;spacingRight=3;rotatable=0;labelPosition=right;points=[];portConstraint=eastwest;" parent="9" vertex="1">
                    <mxGeometry y="80" width="390" height="8" as="geometry"/>
                </mxCell>
                <mxCell id="12" value="+ init(): void&#10;+ update(): void&#10;+ calcTargetValue(onlyReturn: boolean, inputValue: number | undefined, event: MouseEvent | undefined): number | null&#10;- _checkingTargetValue(targetValue: number)&#10;- _calcValuesInPercentage(): void&#10;- _setCurrentValues(): void&#10;- _calcStepAsPercentage(): void&#10;- _checkingIncomingProp(): void&#10;- _getSliderSelectors(): void&#10;- _checkingIsVerticalSlider(): void&#10;- _checkingNumberOfDecimalPlaces(): void&#10;- _getNumberOfDecimalPlaces(): void&#10;- _checkingMinMaxValues(errMessage: IErrMessage): void&#10;- _checkingShowScaleStatus(): void&#10;- _checkingStepSize(errMessage: IErrMessage): void&#10;- _checkingCorrectStepSizeForScale(errMessage: IErrMessage): void&#10;- _checkingCustomValues(): void&#10;- _initCustomValues(): void&#10;- _checkingInitValues(errMessage: IErrMessage): void" style="text;strokeColor=none;fillColor=default;align=left;verticalAlign=top;spacingLeft=4;spacingRight=4;overflow=hidden;rotatable=0;points=[[0,0.5],[1,0.5]];portConstraint=eastwest;whiteSpace=wrap;fontFamily=Verdana;" parent="9" vertex="1">
                    <mxGeometry y="88" width="390" height="322" as="geometry"/>
                </mxCell>
                <mxCell id="13" value="Presenter" style="swimlane;fontStyle=1;align=center;verticalAlign=top;childLayout=stackLayout;horizontal=1;startSize=26;horizontalStack=0;resizeParent=1;resizeParentMax=0;resizeLast=0;collapsible=1;marginBottom=0;whiteSpace=wrap;fontFamily=Verdana;" parent="1" vertex="1">
                    <mxGeometry x="-1445" y="570" width="390" height="180" as="geometry">
                        <mxRectangle x="-1445" y="600" width="90" height="26" as="alternateBounds"/>
                    </mxGeometry>
                </mxCell>
                <mxCell id="14" value="- _view: View&#10;- _model: Model" style="text;strokeColor=none;fillColor=default;align=left;verticalAlign=top;spacingLeft=4;spacingRight=4;overflow=hidden;rotatable=0;points=[[0,0.5],[1,0.5]];portConstraint=eastwest;whiteSpace=wrap;fontFamily=Verdana;" parent="13" vertex="1">
                    <mxGeometry y="26" width="390" height="44" as="geometry"/>
                </mxCell>
                <mxCell id="15" value="" style="line;strokeWidth=1;fillColor=none;align=left;verticalAlign=middle;spacingTop=-1;spacingLeft=3;spacingRight=3;rotatable=0;labelPosition=right;points=[];portConstraint=eastwest;" parent="13" vertex="1">
                    <mxGeometry y="70" width="390" height="8" as="geometry"/>
                </mxCell>
                <mxCell id="16" value="+ renderSlider(initSelector: JQuery): void&#10;+ setObservers(): void&#10;+ renderError(message: string, options: IPluginOptions): void&#10;+ updateViews(options: IPluginOptions): void&#10;+ updateModel(event: MouseEvent, inputValue: number | undefiend, onlyReturn = false): void" style="text;strokeColor=none;fillColor=default;align=left;verticalAlign=top;spacingLeft=4;spacingRight=4;overflow=hidden;rotatable=0;points=[[0,0.5],[1,0.5]];portConstraint=eastwest;whiteSpace=wrap;fontFamily=Verdana;" parent="13" vertex="1">
                    <mxGeometry y="78" width="390" height="102" as="geometry"/>
                </mxCell>
                <mxCell id="17" value="View" style="swimlane;fontStyle=1;align=center;verticalAlign=top;childLayout=stackLayout;horizontal=1;startSize=26;horizontalStack=0;resizeParent=1;resizeParentMax=0;resizeLast=0;collapsible=1;marginBottom=0;whiteSpace=wrap;fontFamily=Verdana;" parent="1" vertex="1">
                    <mxGeometry x="-940" y="490" width="390" height="180" as="geometry">
                        <mxRectangle x="-920" y="520" width="90" height="26" as="alternateBounds"/>
                    </mxGeometry>
                </mxCell>
                <mxCell id="18" value="+ viewError: ViewError{readOnly}&#10;+ subViewsList: object{readOnly}&#10;- _$selector: JQuery" style="text;strokeColor=none;fillColor=default;align=left;verticalAlign=top;spacingLeft=4;spacingRight=4;overflow=hidden;rotatable=0;points=[[0,0.5],[1,0.5]];portConstraint=eastwest;whiteSpace=wrap;fontFamily=Verdana;" parent="17" vertex="1">
                    <mxGeometry y="26" width="390" height="54" as="geometry"/>
                </mxCell>
                <mxCell id="19" value="" style="line;strokeWidth=1;fillColor=none;align=left;verticalAlign=middle;spacingTop=-1;spacingLeft=3;spacingRight=3;rotatable=0;labelPosition=right;points=[];portConstraint=eastwest;" parent="17" vertex="1">
                    <mxGeometry y="80" width="390" height="8" as="geometry"/>
                </mxCell>
                <mxCell id="20" value="+ renderSlider($initSelector: JQuery): void&#10;+ renderError(message: string, options: IPluginOptions): void&#10;+ updateViews(options: IPluginOptions): void&#10;+ updateModel(event: Event, targetValue: number | undefined): void" style="text;strokeColor=none;fillColor=default;align=left;verticalAlign=top;spacingLeft=4;spacingRight=4;overflow=hidden;rotatable=0;points=[[0,0.5],[1,0.5]];portConstraint=eastwest;whiteSpace=wrap;fontFamily=Verdana;" parent="17" vertex="1">
                    <mxGeometry y="88" width="390" height="92" as="geometry"/>
                </mxCell>
                <mxCell id="24" value="&lt;div style=&quot;text-align: left&quot;&gt;TypeSettings: object&lt;br&gt;&lt;/div&gt;" style="html=1;fontFamily=Verdana;fontColor=default;" parent="1" vertex="1">
                    <mxGeometry x="-1150" y="140" width="160" height="30" as="geometry"/>
                </mxCell>
                <mxCell id="26" value="Plugin" style="swimlane;fontStyle=1;align=center;verticalAlign=top;childLayout=stackLayout;horizontal=1;startSize=26;horizontalStack=0;resizeParent=1;resizeParentMax=0;resizeLast=0;collapsible=1;marginBottom=0;whiteSpace=wrap;fontFamily=Verdana;fontColor=default;" parent="1" vertex="1">
                    <mxGeometry x="-1510" y="270" width="520" height="250" as="geometry">
                        <mxRectangle x="-1510" y="270" width="90" height="26" as="alternateBounds"/>
                    </mxGeometry>
                </mxCell>
                <mxCell id="27" value="+ initSettings: IPluginOptions&lt;br&gt;+ typeSettings: object&lt;br&gt;+ limitedProp: string[]" style="text;strokeColor=none;fillColor=default;align=left;verticalAlign=top;spacingLeft=4;spacingRight=4;overflow=hidden;rotatable=0;points=[[0,0.5],[1,0.5]];portConstraint=eastwest;whiteSpace=wrap;fontStyle=4;html=1;fontFamily=Verdana;" parent="26" vertex="1">
                    <mxGeometry y="26" width="520" height="54" as="geometry"/>
                </mxCell>
                <mxCell id="28" value="" style="line;strokeWidth=1;fillColor=none;align=left;verticalAlign=middle;spacingTop=-1;spacingLeft=3;spacingRight=3;rotatable=0;labelPosition=right;points=[];portConstraint=eastwest;" parent="26" vertex="1">
                    <mxGeometry y="80" width="520" height="8" as="geometry"/>
                </mxCell>
                <mxCell id="29" value="+ init($selector: JQuery, settings: object | undefined)&lt;br style=&quot;font-size: 12px;&quot;&gt;+ setProp($selector: JQuery, prop: string, value: string | number | (string | number)[])&lt;br style=&quot;font-size: 12px;&quot;&gt;+ getProp($selector: JQuery, prop: string): string | number | (string | number)[]&lt;br style=&quot;font-size: 12px;&quot;&gt;+ getOptionsObj($selector: JQuery): IPluginOptions&lt;br style=&quot;font-size: 12px;&quot;&gt;+ getCurrentValues($selector: JQuery): string[] | number[]&lt;br style=&quot;font-size: 12px;&quot;&gt;+ destroy($selector: JQuery): JQuery&lt;br style=&quot;font-size: 12px;&quot;&gt;+ subscribe($selector: JQuery, observer: Function): JQuery&lt;br style=&quot;font-size: 12px;&quot;&gt;+ unsubscribe($selector: JQuery, observer: Function): JQuery" style="text;strokeColor=none;fillColor=default;align=left;verticalAlign=top;spacingLeft=4;spacingRight=4;overflow=hidden;rotatable=0;points=[[0,0.5],[1,0.5]];portConstraint=eastwest;whiteSpace=wrap;fontStyle=4;html=1;fontFamily=Verdana;fontSize=12;" parent="26" vertex="1">
                    <mxGeometry y="88" width="520" height="162" as="geometry"/>
                </mxCell>
                <mxCell id="30" value="&lt;div style=&quot;text-align: left&quot;&gt;InitSettings: IPluginOptions&lt;br&gt;&lt;/div&gt;" style="html=1;fontFamily=Verdana;" parent="1" vertex="1">
                    <mxGeometry x="-1510" y="140" width="180" height="30" as="geometry"/>
                </mxCell>
                <mxCell id="32" value="&lt;p style=&quot;margin: 4px 0px 0px ; text-align: center&quot;&gt;&lt;b&gt;createUniqueID&lt;/b&gt;&lt;br&gt;&lt;/p&gt;&lt;hr&gt;&lt;p style=&quot;margin: 0px ; margin-left: 8px&quot;&gt;function(): string&lt;/p&gt;" style="verticalAlign=top;align=left;overflow=fill;fontSize=12;fontFamily=Helvetica;html=1;fontColor=default;fillColor=default;rounded=1;" parent="1" vertex="1">
                    <mxGeometry x="-825" y="370" width="160" height="50" as="geometry"/>
                </mxCell>
                <mxCell id="33" value="&lt;p style=&quot;margin: 4px 0px 0px ; text-align: center&quot;&gt;&lt;b&gt;makeThrottlingHandler&lt;/b&gt;&lt;br&gt;&lt;/p&gt;&lt;hr&gt;&lt;p style=&quot;margin: 0px ; margin-left: 8px&quot;&gt;function(fn: Function, timeout: number): (...args: any) =&amp;gt; void&lt;/p&gt;" style="verticalAlign=top;align=left;overflow=fill;fontSize=12;fontFamily=Helvetica;html=1;fontColor=default;fillColor=default;rounded=1;whiteSpace=wrap;" parent="1" vertex="1">
                    <mxGeometry x="-1370" y="1300" width="230" height="70" as="geometry"/>
                </mxCell>
                <mxCell id="34" value="Observer" style="swimlane;fontStyle=1;align=center;verticalAlign=top;childLayout=stackLayout;horizontal=1;startSize=26;horizontalStack=0;resizeParent=1;resizeParentMax=0;resizeLast=0;collapsible=1;marginBottom=0;whiteSpace=wrap;fontFamily=Verdana;" parent="1" vertex="1">
                    <mxGeometry x="-1380" y="820" width="260" height="120" as="geometry">
                        <mxRectangle x="-1380" y="860" width="90" height="26" as="alternateBounds"/>
                    </mxGeometry>
                </mxCell>
                <mxCell id="35" value="+ observerList: Function[]" style="text;strokeColor=none;fillColor=default;align=left;verticalAlign=top;spacingLeft=4;spacingRight=4;overflow=hidden;rotatable=0;points=[[0,0.5],[1,0.5]];portConstraint=eastwest;whiteSpace=wrap;fontFamily=Verdana;" parent="34" vertex="1">
                    <mxGeometry y="26" width="260" height="24" as="geometry"/>
                </mxCell>
                <mxCell id="36" value="" style="line;strokeWidth=1;fillColor=none;align=left;verticalAlign=middle;spacingTop=-1;spacingLeft=3;spacingRight=3;rotatable=0;labelPosition=right;points=[];portConstraint=eastwest;" parent="34" vertex="1">
                    <mxGeometry y="50" width="260" height="8" as="geometry"/>
                </mxCell>
                <mxCell id="37" value="+ subscribe(observer: Function): void&#10;+ unsubscribe(observer: Function): void&#10;+ notify(...arg: any): void" style="text;strokeColor=none;fillColor=default;align=left;verticalAlign=top;spacingLeft=4;spacingRight=4;overflow=hidden;rotatable=0;points=[[0,0.5],[1,0.5]];portConstraint=eastwest;whiteSpace=wrap;fontFamily=Verdana;" parent="34" vertex="1">
                    <mxGeometry y="58" width="260" height="62" as="geometry"/>
                </mxCell>
                <mxCell id="38" value="ViewSlider" style="swimlane;fontStyle=1;align=center;verticalAlign=top;childLayout=stackLayout;horizontal=1;startSize=26;horizontalStack=0;resizeParent=1;resizeParentMax=0;resizeLast=0;collapsible=1;marginBottom=0;whiteSpace=wrap;fontFamily=Verdana;" parent="1" vertex="1">
                    <mxGeometry x="-440" y="910" width="390" height="310" as="geometry">
                        <mxRectangle x="-1270" y="20" width="90" height="26" as="alternateBounds"/>
                    </mxGeometry>
                </mxCell>
                <mxCell id="39" value="- _view: IMainView&#10;- _$selector: JQuery&#10;- _$elemSlider: JQuery&#10;- _$sliderProgress: JQuery&#10;- _$elemThumbs: JQuery&#10;- _$elemMarkers: JQuery&#10;- _verifKeysObj: object&#10;- _isFirstInit: boolean" style="text;strokeColor=none;fillColor=default;align=left;verticalAlign=top;spacingLeft=4;spacingRight=4;overflow=hidden;rotatable=0;points=[[0,0.5],[1,0.5]];portConstraint=eastwest;whiteSpace=wrap;fontFamily=Verdana;" parent="38" vertex="1">
                    <mxGeometry y="26" width="390" height="124" as="geometry"/>
                </mxCell>
                <mxCell id="40" value="" style="line;strokeWidth=1;fillColor=none;align=left;verticalAlign=middle;spacingTop=-1;spacingLeft=3;spacingRight=3;rotatable=0;labelPosition=right;points=[];portConstraint=eastwest;" parent="38" vertex="1">
                    <mxGeometry y="150" width="390" height="8" as="geometry"/>
                </mxCell>
                <mxCell id="41" value="+ update(options: IPluginOptions): void&#10;- _init(options: IPluginOptions): void&#10;- _setMinAndMaxVal(options: IPluginOptions): void&#10;- _setAutoMargins(options: IPluginOptions): void&#10;- _setBackgroundForSlider(options: IPluginOptions): void&#10;- _setVerticalOrientation(options: IPluginOptions): void&#10;- _setBackgroundTheRange(options: IPluginOptions): void&#10;- _setEventsSlider(): void&#10;- _handleSliderPointerdown(event: Event): void" style="text;strokeColor=none;fillColor=default;align=left;verticalAlign=top;spacingLeft=4;spacingRight=4;overflow=hidden;rotatable=0;points=[[0,0.5],[1,0.5]];portConstraint=eastwest;whiteSpace=wrap;fontFamily=Verdana;" parent="38" vertex="1">
                    <mxGeometry y="158" width="390" height="152" as="geometry"/>
                </mxCell>
                <mxCell id="42" value="ViewThumbs&#10;" style="swimlane;fontStyle=1;align=center;verticalAlign=top;childLayout=stackLayout;horizontal=1;startSize=26;horizontalStack=0;resizeParent=1;resizeParentMax=0;resizeLast=0;collapsible=1;marginBottom=0;whiteSpace=wrap;fontFamily=Verdana;" parent="1" vertex="1">
                    <mxGeometry x="-1480" y="960" width="450" height="270" as="geometry">
                        <mxRectangle x="-1270" y="20" width="90" height="26" as="alternateBounds"/>
                    </mxGeometry>
                </mxCell>
                <mxCell id="43" value="- _view: IMainView&#10;- _$elemThumbs: JQuery&#10;- _verifKeysObj: object&#10;- _isFirstInit: boolean" style="text;strokeColor=none;fillColor=default;align=left;verticalAlign=top;spacingLeft=4;spacingRight=4;overflow=hidden;rotatable=0;points=[[0,0.5],[1,0.5]];portConstraint=eastwest;whiteSpace=wrap;fontFamily=Verdana;" parent="42" vertex="1">
                    <mxGeometry y="26" width="450" height="74" as="geometry"/>
                </mxCell>
                <mxCell id="44" value="" style="line;strokeWidth=1;fillColor=none;align=left;verticalAlign=middle;spacingTop=-1;spacingLeft=3;spacingRight=3;rotatable=0;labelPosition=right;points=[];portConstraint=eastwest;" parent="42" vertex="1">
                    <mxGeometry y="100" width="450" height="8" as="geometry"/>
                </mxCell>
                <mxCell id="45" value="+ update(options: IPluginOptions): void&lt;br&gt;- _init(options: IPluginOptions): void&lt;br&gt;- _setStyleForThumbs(options: IPluginOptions): void&lt;br&gt;- _setValueInThumbs(options: IPluginOptions): void&lt;br&gt;- _checkIsRange(options: IPluginOptions): void&lt;br&gt;- _setEventsThumbs(options: IPluginOptions): void&lt;br&gt;- _handleThumbKeydown(options: IPluginOptions, event: Event): void&lt;br&gt;- _handleThumbPointerdown(event: Event): void&lt;br&gt;- _handleThumbPointermove(event: Event): void&lt;br&gt;- &lt;u&gt;_handleThumbPointerup(event: Event): void&lt;/u&gt;" style="text;strokeColor=none;fillColor=default;align=left;verticalAlign=top;spacingLeft=4;spacingRight=4;overflow=hidden;rotatable=0;points=[[0,0.5],[1,0.5]];portConstraint=eastwest;whiteSpace=wrap;fontFamily=Verdana;fontStyle=0;html=1;" parent="42" vertex="1">
                    <mxGeometry y="108" width="450" height="162" as="geometry"/>
                </mxCell>
                <mxCell id="48" value="ViewScale&#10;" style="swimlane;fontStyle=1;align=center;verticalAlign=top;childLayout=stackLayout;horizontal=1;startSize=26;horizontalStack=0;resizeParent=1;resizeParentMax=0;resizeLast=0;collapsible=1;marginBottom=0;whiteSpace=wrap;fontFamily=Verdana;" parent="1" vertex="1">
                    <mxGeometry x="-990" y="960" width="490" height="380" as="geometry">
                        <mxRectangle x="-1270" y="20" width="90" height="26" as="alternateBounds"/>
                    </mxGeometry>
                </mxCell>
                <mxCell id="49" value="- _view: IMainView&#10;- _$selector: JQuery&#10;- _$elemSlider: JQuery&#10;- _$elemScale: JQuery&#10;- _$elemScalePoints: JQuery&#10;- _scalePointsSize: number&#10;- _mapSkipScalePoints: Map&lt;number, JQuery[]&gt;&#10;- _skipScalePointsArray: JQuery[]&#10;- _isFirstInit: boolean&#10;- _verifKeysObj: object" style="text;strokeColor=none;fillColor=default;align=left;verticalAlign=top;spacingLeft=4;spacingRight=4;overflow=hidden;rotatable=0;points=[[0,0.5],[1,0.5]];portConstraint=eastwest;whiteSpace=wrap;fontFamily=Verdana;" parent="48" vertex="1">
                    <mxGeometry y="26" width="490" height="154" as="geometry"/>
                </mxCell>
                <mxCell id="50" value="" style="line;strokeWidth=1;fillColor=none;align=left;verticalAlign=middle;spacingTop=-1;spacingLeft=3;spacingRight=3;rotatable=0;labelPosition=right;points=[];portConstraint=eastwest;" parent="48" vertex="1">
                    <mxGeometry y="180" width="490" height="8" as="geometry"/>
                </mxCell>
                <mxCell id="51" value="&lt;div&gt;+ update(options: IPluginOptions): void&lt;/div&gt;&lt;div&gt;- _init(options: IPluginOptions): void&lt;/div&gt;&lt;div&gt;- _createScale(options: IPluginOptions): void&lt;/div&gt;&lt;div&gt;- _calcScalePointsSize(targetScalePoint: HTMLElement): void&lt;/div&gt;&lt;div&gt;- _setStyleForScale(options: IPluginOptions): void&lt;/div&gt;&lt;div&gt;- _checkingScaleSize(options: IPluginOptions): void&lt;/div&gt;&lt;div&gt;- _setPropForSkipScalePoint(currentScalePoint: HTMLElement): void&lt;/div&gt;&lt;div&gt;- _checkingSkipScalePointSize(sliderSize: number, margin: number): void&lt;/div&gt;&lt;div&gt;- _setEventResize(options: IPluginOptions): void&lt;/div&gt;&lt;div&gt;- _handleWindowResize(options: IPluginOptions): void&lt;/div&gt;&lt;div&gt;- _setEventsScalePoints(): void&lt;/div&gt;&lt;div&gt;- _handleScalePointClick(event: Event): void&lt;/div&gt;" style="text;strokeColor=none;fillColor=default;align=left;verticalAlign=top;spacingLeft=4;spacingRight=4;overflow=hidden;rotatable=0;points=[[0,0.5],[1,0.5]];portConstraint=eastwest;whiteSpace=wrap;fontFamily=Verdana;fontStyle=0;html=1;" parent="48" vertex="1">
                    <mxGeometry y="188" width="490" height="192" as="geometry"/>
                </mxCell>
                <mxCell id="56" value="ViewMarkers" style="swimlane;fontStyle=1;align=center;verticalAlign=top;childLayout=stackLayout;horizontal=1;startSize=26;horizontalStack=0;resizeParent=1;resizeParentMax=0;resizeLast=0;collapsible=1;marginBottom=0;whiteSpace=wrap;fontFamily=Verdana;" parent="1" vertex="1">
                    <mxGeometry x="-440" y="680" width="390" height="180" as="geometry">
                        <mxRectangle x="-1270" y="20" width="90" height="26" as="alternateBounds"/>
                    </mxGeometry>
                </mxCell>
                <mxCell id="57" value="- _$elemMarkers: JQuery&#10;- _$elemThumbs: JQuery&#10;- _isFirstInit: boolean&#10;- _verifKeysObj: object" style="text;strokeColor=none;fillColor=default;align=left;verticalAlign=top;spacingLeft=4;spacingRight=4;overflow=hidden;rotatable=0;points=[[0,0.5],[1,0.5]];portConstraint=eastwest;whiteSpace=wrap;fontFamily=Verdana;" parent="56" vertex="1">
                    <mxGeometry y="26" width="390" height="74" as="geometry"/>
                </mxCell>
                <mxCell id="58" value="" style="line;strokeWidth=1;fillColor=none;align=left;verticalAlign=middle;spacingTop=-1;spacingLeft=3;spacingRight=3;rotatable=0;labelPosition=right;points=[];portConstraint=eastwest;" parent="56" vertex="1">
                    <mxGeometry y="100" width="390" height="8" as="geometry"/>
                </mxCell>
                <mxCell id="59" value="+ update(options: IPluginOptions): void&#10;- _init(options: IPluginOptions): void&#10;- _setValueInMarkers(options: IPluginOptions): void&#10;- _setStyleForMarkers(options: IPluginOptions): void" style="text;strokeColor=none;fillColor=default;align=left;verticalAlign=top;spacingLeft=4;spacingRight=4;overflow=hidden;rotatable=0;points=[[0,0.5],[1,0.5]];portConstraint=eastwest;whiteSpace=wrap;fontFamily=Verdana;" parent="56" vertex="1">
                    <mxGeometry y="108" width="390" height="72" as="geometry"/>
                </mxCell>
                <mxCell id="65" value="" style="endArrow=open;endFill=1;endSize=12;html=1;fontFamily=Verdana;fontSize=12;fontColor=default;exitX=0;exitY=1;exitDx=0;exitDy=0;entryX=1;entryY=0;entryDx=0;entryDy=0;" parent="1" source="17" target="34" edge="1">
                    <mxGeometry width="160" relative="1" as="geometry">
                        <mxPoint x="-960" y="810" as="sourcePoint"/>
                        <mxPoint x="-800" y="810" as="targetPoint"/>
                    </mxGeometry>
                </mxCell>
                <mxCell id="66" value="" style="endArrow=open;endFill=1;endSize=12;html=1;fontFamily=Verdana;fontSize=12;fontColor=default;exitX=1.003;exitY=0.311;exitDx=0;exitDy=0;entryX=0;entryY=0;entryDx=0;entryDy=0;exitPerimeter=0;" parent="1" source="12" target="34" edge="1">
                    <mxGeometry width="160" relative="1" as="geometry">
                        <mxPoint x="-1360" y="820" as="sourcePoint"/>
                        <mxPoint x="-1560" y="980" as="targetPoint"/>
                    </mxGeometry>
                </mxCell>
                <mxCell id="67" value="Use" style="endArrow=open;endSize=12;dashed=1;html=1;fontFamily=Verdana;fontSize=12;fontColor=default;exitX=0.488;exitY=-0.008;exitDx=0;exitDy=0;exitPerimeter=0;entryX=0.5;entryY=1;entryDx=0;entryDy=0;" parent="1" source="26" target="30" edge="1">
                    <mxGeometry width="160" relative="1" as="geometry">
                        <mxPoint x="-1420" y="210" as="sourcePoint"/>
                        <mxPoint x="-1260" y="210" as="targetPoint"/>
                    </mxGeometry>
                </mxCell>
                <mxCell id="68" value="Use" style="endArrow=open;endSize=12;dashed=1;html=1;fontFamily=Verdana;fontSize=12;fontColor=default;exitX=0.5;exitY=0;exitDx=0;exitDy=0;entryX=0.5;entryY=1;entryDx=0;entryDy=0;" parent="1" source="26" target="24" edge="1">
                    <mxGeometry width="160" relative="1" as="geometry">
                        <mxPoint x="-1050" y="266" as="sourcePoint"/>
                        <mxPoint x="-1060" y="200" as="targetPoint"/>
                    </mxGeometry>
                </mxCell>
                <mxCell id="69" value="Use" style="endArrow=open;endSize=12;dashed=1;html=1;fontFamily=Verdana;fontSize=12;fontColor=default;entryX=0.5;entryY=1;entryDx=0;entryDy=0;exitX=0.5;exitY=0;exitDx=0;exitDy=0;" parent="1" source="17" target="32" edge="1">
                    <mxGeometry width="160" relative="1" as="geometry">
                        <mxPoint x="-725" y="520" as="sourcePoint"/>
                        <mxPoint x="-540" y="424" as="targetPoint"/>
                    </mxGeometry>
                </mxCell>
                <mxCell id="72" value="Use" style="endArrow=open;endSize=12;dashed=1;html=1;fontFamily=Verdana;fontSize=12;fontColor=default;exitX=0;exitY=0.5;exitDx=0;exitDy=0;entryX=1;entryY=0.5;entryDx=0;entryDy=0;" parent="1" source="51" target="33" edge="1">
                    <mxGeometry width="160" relative="1" as="geometry">
                        <mxPoint x="-1571.18" y="1310" as="sourcePoint"/>
                        <mxPoint x="-1571.18" y="1380" as="targetPoint"/>
                    </mxGeometry>
                </mxCell>
                <mxCell id="73" value="Use" style="endArrow=open;endSize=12;dashed=1;html=1;fontFamily=Verdana;fontSize=12;fontColor=default;entryX=1;entryY=0.5;entryDx=0;entryDy=0;exitX=0.513;exitY=1.011;exitDx=0;exitDy=0;exitPerimeter=0;" parent="1" source="45" edge="1">
                    <mxGeometry width="160" relative="1" as="geometry">
                        <mxPoint x="-1210" y="1250" as="sourcePoint"/>
                        <mxPoint x="-1250" y="1301" as="targetPoint"/>
                    </mxGeometry>
                </mxCell>
                <mxCell id="74" value="Use" style="endArrow=open;endSize=12;dashed=1;html=1;fontFamily=Verdana;fontSize=12;fontColor=default;exitX=1.006;exitY=1.037;exitDx=0;exitDy=0;exitPerimeter=0;entryX=0.304;entryY=-0.034;entryDx=0;entryDy=0;metaEdit=0;anchorPointDirection=1;jumpSize=6;textOpacity=0;entryPerimeter=0;" parent="1" source="27" target="17" edge="1">
                    <mxGeometry x="-0.0346" y="-1" width="160" relative="1" as="geometry">
                        <mxPoint x="-900" y="500" as="sourcePoint"/>
                        <mxPoint x="-840" y="450" as="targetPoint"/>
                        <mxPoint y="-1" as="offset"/>
                    </mxGeometry>
                </mxCell>
                <mxCell id="75" value="Use" style="endArrow=open;endSize=12;dashed=1;html=1;fontFamily=Verdana;fontSize=12;fontColor=default;entryX=0.705;entryY=-0.005;entryDx=0;entryDy=0;metaEdit=0;anchorPointDirection=1;jumpSize=6;textOpacity=0;exitX=-0.008;exitY=-0.012;exitDx=0;exitDy=0;exitPerimeter=0;entryPerimeter=0;" parent="1" source="29" target="9" edge="1">
                    <mxGeometry x="-0.0346" y="-1" width="160" relative="1" as="geometry">
                        <mxPoint x="-1530" y="360" as="sourcePoint"/>
                        <mxPoint x="-1711.46" y="518.08" as="targetPoint"/>
                        <mxPoint y="-1" as="offset"/>
                    </mxGeometry>
                </mxCell>
                <mxCell id="76" value="Use" style="endArrow=open;endSize=12;dashed=1;html=1;fontFamily=Verdana;fontSize=12;fontColor=default;entryX=0.5;entryY=0;entryDx=0;entryDy=0;metaEdit=0;anchorPointDirection=1;jumpSize=6;textOpacity=0;exitX=0.498;exitY=1.024;exitDx=0;exitDy=0;exitPerimeter=0;" parent="1" source="29" target="13" edge="1">
                    <mxGeometry x="-0.0346" y="-1" width="160" relative="1" as="geometry">
                        <mxPoint x="-1240" y="510" as="sourcePoint"/>
                        <mxPoint x="-958.12" y="697.9999999999998" as="targetPoint"/>
                        <mxPoint y="-1" as="offset"/>
                    </mxGeometry>
                </mxCell>
                <mxCell id="77" value="Use" style="endArrow=open;endSize=12;dashed=1;html=1;fontFamily=Verdana;fontSize=12;fontColor=default;exitX=1.008;exitY=-0.046;exitDx=0;exitDy=0;exitPerimeter=0;metaEdit=0;anchorPointDirection=1;jumpSize=6;textOpacity=0;entryX=-0.001;entryY=-0.057;entryDx=0;entryDy=0;entryPerimeter=0;" parent="1" source="16" target="20" edge="1">
                    <mxGeometry x="-0.0346" y="-1" width="160" relative="1" as="geometry">
                        <mxPoint x="-906.8800000000001" y="761.9980000000003" as="sourcePoint"/>
                        <mxPoint x="-920" y="600" as="targetPoint"/>
                        <mxPoint y="-1" as="offset"/>
                    </mxGeometry>
                </mxCell>
                <mxCell id="78" value="Use" style="endArrow=open;endSize=12;dashed=1;html=1;fontFamily=Verdana;fontSize=12;fontColor=default;metaEdit=0;anchorPointDirection=1;jumpSize=6;textOpacity=0;entryX=0.993;entryY=0.787;entryDx=0;entryDy=0;entryPerimeter=0;exitX=0;exitY=0.5;exitDx=0;exitDy=0;" parent="1" source="13" target="11" edge="1">
                    <mxGeometry x="-0.0346" y="-1" width="160" relative="1" as="geometry">
                        <mxPoint x="-1480" y="670" as="sourcePoint"/>
                        <mxPoint x="-1445" y="549.9960000000001" as="targetPoint"/>
                        <mxPoint y="-1" as="offset"/>
                    </mxGeometry>
                </mxCell>
                <mxCell id="87" value="" style="endArrow=diamondThin;endFill=1;endSize=24;html=1;exitX=0;exitY=0.5;exitDx=0;exitDy=0;entryX=1;entryY=0.75;entryDx=0;entryDy=0;" parent="1" source="56" target="17" edge="1">
                    <mxGeometry width="160" relative="1" as="geometry">
                        <mxPoint x="-524.5400000000004" y="758.8159999999998" as="sourcePoint"/>
                        <mxPoint x="-610.0000000000005" y="781.1879999999999" as="targetPoint"/>
                    </mxGeometry>
                </mxCell>
                <mxCell id="88" value="" style="endArrow=diamondThin;endFill=1;endSize=24;html=1;exitX=0;exitY=0;exitDx=0;exitDy=0;entryX=0.803;entryY=0.995;entryDx=0;entryDy=0;entryPerimeter=0;" parent="1" source="38" target="20" edge="1">
                    <mxGeometry width="160" relative="1" as="geometry">
                        <mxPoint x="-550.0000000000005" y="850" as="sourcePoint"/>
                        <mxPoint x="-825.0000000000005" y="750" as="targetPoint"/>
                    </mxGeometry>
                </mxCell>
                <mxCell id="89" value="" style="endArrow=diamondThin;endFill=1;endSize=24;html=1;exitX=0.5;exitY=0;exitDx=0;exitDy=0;entryX=0.5;entryY=1;entryDx=0;entryDy=0;" parent="1" source="48" target="17" edge="1">
                    <mxGeometry width="160" relative="1" as="geometry">
                        <mxPoint x="-622.1500000000004" y="940" as="sourcePoint"/>
                        <mxPoint x="-825.0000000000003" y="703.864" as="targetPoint"/>
                    </mxGeometry>
                </mxCell>
                <mxCell id="90" value="" style="endArrow=diamondThin;endFill=1;endSize=24;html=1;exitX=0.933;exitY=0;exitDx=0;exitDy=0;exitPerimeter=0;entryX=0.158;entryY=0.995;entryDx=0;entryDy=0;entryPerimeter=0;" parent="1" source="42" target="20" edge="1">
                    <mxGeometry width="160" relative="1" as="geometry">
                        <mxPoint x="-860.0000000000005" y="950" as="sourcePoint"/>
                        <mxPoint x="-830" y="670" as="targetPoint"/>
                    </mxGeometry>
                </mxCell>
            </root>
        </mxGraphModel>
    </diagram>
</mxfile>